<?xml version="1.0" encoding="UTF-8" standalone="no"?>
<svg width="16px" height="16px" viewBox="0 0 16 16" version="1.1" xmlns="http://www.w3.org/2000/svg" xmlns:xlink="http://www.w3.org/1999/xlink">
    <!-- Generator: Sketch 48.2 (47327) - http://www.bohemiancoding.com/sketch -->
    <title>down-12*12</title>
    <desc>Created with Sketch.</desc>
    <defs>
        <path d="M0,0 L36,0 C38.209139,-4.05812251e-16 40,1.790861 40,4 L40,36 C40,38.209139 38.209139,40 36,40 L0,40 L0,0 Z" id="path-1"></path>
    </defs>
    <g id="web-ui" stroke="none" stroke-width="1" fill="none" fill-rule="evenodd" transform="translate(-1086.000000, -3833.000000)">
        <g id="10" transform="translate(320.000000, 3742.000000)">
            <g id="input_stock" transform="translate(641.000000, 69.000000)">
                <g id="preset" transform="translate(113.000000, 0.000000)">
                    <g id="select">
                        <use fill="#F5F7FA" fill-rule="evenodd" xlink:href="#path-1"></use>
                        <path stroke="#D8DCE6" stroke-width="1" d="M0.5,0.5 L0.5,39.5 L36,39.5 C37.9329966,39.5 39.5,37.9329966 39.5,36 L39.5,4 C39.5,2.06700338 37.9329966,0.5 36,0.5 L0.5,0.5 Z"></path>
                    </g>
                    <polygon id="icon_down" fill="#C0C4CC" points="24.59615 27.2395279 20.00015 31.8355279 15.40415 27.2395279 14.34315 28.3005279 20.00015 33.9575279 25.65715 28.3005279"></polygon>
                </g>
            </g>
        </g>
    </g>
</svg>